<?xml version="1.0" standalone="no"?>
<!DOCTYPE svg PUBLIC "-//W3C//DTD SVG 20010904//EN"
 "http://www.w3.org/TR/2001/REC-SVG-20010904/DTD/svg10.dtd">
<svg version="1.0" xmlns="http://www.w3.org/2000/svg"
 width="512.000000pt" height="512.000000pt" viewBox="0 0 512.000000 512.000000"
 preserveAspectRatio="xMidYMid meet">

<g transform="translate(0.000000,512.000000) scale(0.100000,-0.100000)"
fill="#000000" stroke="none">
<path d="M2340 4600 c-274 -35 -478 -97 -723 -220 -369 -186 -691 -508 -877
-877 -159 -317 -229 -604 -229 -943 0 -364 82 -672 271 -1020 76 -139 204
-303 345 -441 401 -395 943 -606 1498 -586 390 14 743 128 1075 346 150 98
360 293 471 436 272 351 420 759 436 1200 14 383 -78 748 -276 1093 -160 279
-414 542 -692 717 -137 86 -404 199 -579 244 -60 15 -198 40 -285 51 -81 10
-354 10 -435 0z m415 -250 c-8 -13 -345 -13 -365 0 -10 6 50 10 178 10 126 0
191 -3 187 -10z m-500 -30 c4 -6 -12 -10 -42 -10 -35 0 -44 3 -33 10 20 13 67
13 75 0z m703 1 c11 -6 9 -9 -6 -13 -28 -8 -112 3 -112 13 0 11 101 11 118 0z
m120 -27 c33 -9 27 -24 -10 -24 -50 0 -83 11 -66 21 15 10 44 11 76 3z m-978
-8 c0 -9 -39 -13 -51 -5 -10 6 -4 9 19 9 17 0 32 -2 32 -4z m1075 -26 c14 -5
23 -14 20 -20 -8 -13 -27 -13 -62 1 -29 12 -28 12 14 28 1 1 14 -3 28 -9z
m-1195 -10 c0 -5 -7 -10 -15 -10 -8 0 -15 5 -15 10 0 6 7 10 15 10 8 0 15 -4
15 -10z m1300 -30 c12 -8 12 -10 -3 -16 -21 -8 -67 3 -67 16 0 13 50 13 70 0z
m-1387 -7 c-7 -2 -21 -2 -30 0 -10 3 -4 5 12 5 17 0 24 -2 18 -5z m1460 -33
c14 -11 35 -20 46 -20 12 0 24 -7 27 -15 4 -8 12 -15 20 -15 8 0 37 -16 64
-35 27 -19 52 -35 55 -35 10 0 70 -44 78 -57 4 -7 13 -13 19 -13 14 0 16 -2
171 -151 70 -68 127 -129 127 -135 0 -7 7 -14 15 -18 8 -3 15 -12 15 -20 0 -8
6 -19 13 -23 6 -4 26 -28 42 -53 17 -25 33 -46 38 -48 4 -2 7 -9 7 -16 0 -7 9
-23 20 -36 11 -13 20 -31 20 -40 0 -10 7 -20 15 -24 8 -3 15 -14 15 -25 0 -11
7 -26 15 -34 7 -8 17 -27 21 -43 4 -16 13 -35 21 -42 7 -7 13 -29 13 -48 0
-19 5 -34 10 -34 17 0 32 -52 22 -75 -9 -19 -10 -19 -21 8 -6 16 -11 37 -11
48 0 10 -4 19 -10 19 -5 0 -13 18 -16 39 -4 22 -13 42 -20 45 -8 3 -14 11 -14
18 0 7 -14 38 -30 68 -16 30 -34 65 -40 78 -5 13 -17 30 -25 38 -8 9 -15 22
-15 30 0 8 -3 14 -7 14 -5 0 -21 21 -38 48 -16 26 -32 49 -35 52 -3 3 -32 36
-65 75 -76 88 -122 134 -210 210 -39 33 -71 63 -73 67 -2 4 -18 15 -35 23 -18
8 -45 26 -61 40 -16 14 -35 25 -43 25 -7 0 -13 4 -13 9 0 5 -13 14 -30 20 -16
5 -30 15 -30 20 0 6 -9 11 -19 11 -11 0 -26 6 -33 13 -7 6 -26 17 -42 22 -16
6 -31 16 -34 23 -6 19 32 14 61 -8z m-764 -304 c7 -8 11 -30 9 -48 -3 -30 -6
-33 -39 -36 -32 -3 -37 0 -41 22 -10 53 42 98 71 62z m201 -346 c0 -5 -2 -10
-4 -10 -3 0 -8 5 -11 10 -3 6 -1 10 4 10 6 0 11 -4 11 -10z m27 -42 c-3 -8 -6
-5 -6 6 -1 11 2 17 5 13 3 -3 4 -12 1 -19z m74 -91 c-1 -12 -15 -9 -19 4 -3 6
1 10 8 8 6 -3 11 -8 11 -12z m109 -143 c0 -16 -16 -19 -25 -4 -8 13 4 32 16
25 5 -4 9 -13 9 -21z m-2093 -21 c-3 -10 -5 -4 -5 12 0 17 2 24 5 18 2 -7 2
-21 0 -30z m999 22 c8 -20 -13 -45 -37 -45 -13 0 -19 7 -19 23 0 13 3 27 7 30
12 13 44 7 49 -8z m1364 -9 c0 -16 -7 -27 -19 -31 -23 -7 -95 -75 -110 -104
-6 -11 -11 -29 -11 -41 0 -17 -3 -19 -19 -10 -17 8 -30 -1 -95 -67 -58 -58
-76 -83 -76 -104 0 -15 3 -29 8 -31 17 -7 52 -69 52 -93 0 -33 -15 -32 -29 3
-20 47 -36 69 -85 118 -49 49 -71 65 -118 85 -35 14 -36 29 -3 29 24 0 86 -35
93 -52 2 -5 16 -8 32 -8 22 0 45 17 104 77 50 51 76 85 76 100 0 17 6 23 23
23 26 0 104 71 118 108 13 33 59 31 59 -2z m-240 -38 c0 -19 -2 -20 -10 -8
-13 19 -13 30 0 30 6 0 10 -10 10 -22z m32 -60 c-9 -9 -12 -7 -12 12 0 19 3
21 12 12 9 -9 9 -15 0 -24z m-2182 7 c0 -8 -4 -15 -10 -15 -5 0 -10 7 -10 15
0 8 5 15 10 15 6 0 10 -7 10 -15z m1147 -57 c-3 -7 -5 -2 -5 12 0 14 2 19 5
13 2 -7 2 -19 0 -25z m2267 -20 c9 -34 7 -76 -3 -82 -11 -7 -21 27 -21 72 0
37 15 43 24 10z m-3451 -39 c-8 -29 -13 -23 -13 14 0 22 3 28 9 18 5 -7 6 -22
4 -32z m1887 -20 c0 -11 -71 -12 -97 -2 -15 6 -13 8 12 13 37 7 85 1 85 -11z
m440 0 c0 -5 -4 -9 -10 -9 -5 0 -10 7 -10 16 0 8 5 12 10 9 6 -3 10 -10 10
-16z m-705 1 c-3 -5 -15 -10 -26 -10 -10 0 -19 5 -19 10 0 6 12 10 26 10 14 0
23 -4 19 -10z m735 -40 c0 -5 -2 -10 -4 -10 -3 0 -8 5 -11 10 -3 6 -1 10 4 10
6 0 11 -4 11 -10z m1130 -87 c0 -35 -4 -63 -9 -63 -12 0 -24 104 -16 131 12
37 25 1 25 -68z m-2150 63 c0 -3 -4 -8 -10 -11 -5 -3 -10 -1 -10 4 0 6 5 11
10 11 6 0 10 -2 10 -4z m-1370 -52 c0 -27 -4 -43 -10 -39 -11 7 -13 45 -4 69
10 26 14 18 14 -30z m1413 20 c14 -5 13 -8 -1 -23 -17 -17 -32 -10 -32 17 0
13 10 15 33 6z m1047 -45 c0 -6 -4 -7 -10 -4 -5 3 -10 11 -10 16 0 6 5 7 10 4
6 -3 10 -11 10 -16z m1092 -206 c7 -121 -2 -304 -13 -297 -12 7 -12 394 0 394
4 0 11 -44 13 -97z m-992 77 c0 -5 -5 -10 -11 -10 -5 0 -7 5 -4 10 3 6 8 10
11 10 2 0 4 -4 4 -10z m-2590 -207 c0 -104 -4 -174 -10 -178 -7 -4 -10 61 -10
187 0 128 4 188 10 178 5 -8 10 -92 10 -187z m2252 160 c2 -16 1 -41 -2 -58
-5 -25 -7 -27 -13 -12 -10 26 -9 97 2 97 5 0 10 -12 13 -27z m-922 -22 c0 -11
-4 -23 -10 -26 -6 -4 -10 5 -10 19 0 14 5 26 10 26 6 0 10 -9 10 -19z m1777
-109 c7 -30 -17 -52 -58 -52 -45 0 -54 51 -12 73 35 19 62 11 70 -21z m-2567
13 c17 -21 3 -54 -27 -61 -48 -12 -80 28 -48 60 20 20 59 21 75 1z m790 -152
c0 -24 -4 -43 -9 -43 -11 0 -18 43 -12 84 5 41 21 11 21 -41z m920 12 c0 -19
-4 -35 -10 -35 -11 0 -13 30 -4 54 10 25 14 19 14 -19z m-881 -92 c20 -48 36
-70 85 -119 49 -49 71 -65 119 -85 34 -14 35 -29 2 -29 -24 0 -86 35 -93 53
-2 4 -16 7 -31 7 -38 0 -181 -140 -181 -176 0 -19 -5 -24 -24 -24 -27 0 -110
-76 -121 -110 -4 -13 -15 -20 -31 -20 -33 0 -34 46 -1 60 48 20 117 100 117
136 0 21 3 23 19 15 27 -15 171 128 171 169 0 16 -3 30 -7 32 -18 7 -53 69
-53 93 0 33 15 32 29 -2z m838 -15 c-3 -8 -6 -5 -6 6 -1 11 2 17 5 13 3 -3 4
-12 1 -19z m-2174 -104 c6 -55 -1 -93 -14 -72 -11 17 -11 118 0 118 4 0 11
-21 14 -46z m3516 -7 c0 -18 -4 -41 -9 -52 -6 -14 -9 -4 -9 38 -1 36 3 56 9
52 6 -3 10 -21 9 -38z m-2459 2 c0 -6 -4 -7 -10 -4 -5 3 -10 11 -10 16 0 6 5
7 10 4 6 -3 10 -11 10 -16z m1057 -35 c-3 -3 -15 -3 -27 1 -21 7 -21 7 -3 27
17 19 18 19 27 -1 5 -12 7 -24 3 -27z m33 -24 c0 -5 -4 -10 -10 -10 -5 0 -10
5 -10 10 0 6 5 10 10 10 6 0 10 -4 10 -10z m-1025 -30 c3 -5 1 -10 -4 -10 -6
0 -11 5 -11 10 0 6 2 10 4 10 3 0 8 -4 11 -10z m852 -6 c-3 -3 -12 -4 -19 -1
-8 3 -5 6 6 6 11 1 17 -2 13 -5z m-1938 -76 c1 -21 -3 -38 -9 -38 -13 0 -23
64 -14 92 7 22 7 22 15 3 4 -11 8 -37 8 -57z m1121 36 c0 -8 -4 -12 -10 -9 -5
3 -10 10 -10 16 0 5 5 9 10 9 6 0 10 -7 10 -16z m517 9 c15 -6 13 -8 -12 -13
-37 -7 -85 -1 -85 11 0 11 71 12 97 2z m223 -3 c0 -5 -17 -10 -37 -10 -28 0
-34 3 -23 10 20 13 60 13 60 0z m1580 -27 c0 -26 -3 -34 -11 -26 -9 9 -3 63 7
63 2 0 4 -17 4 -37z m-1193 -75 c-3 -7 -5 -2 -5 12 0 14 2 19 5 13 2 -7 2 -19
0 -25z m-2212 -29 c9 -41 -10 -62 -24 -27 -10 28 -4 71 9 63 5 -3 12 -19 15
-36z m1185 -11 c0 -16 -3 -19 -11 -11 -6 6 -8 16 -5 22 11 17 16 13 16 -11z
m2190 8 c0 -8 -4 -18 -10 -21 -5 -3 -10 3 -10 14 0 12 5 21 10 21 6 0 10 -6
10 -14z m-2150 -68 c0 -5 -4 -8 -10 -8 -5 0 -10 10 -10 23 0 18 2 19 10 7 5
-8 10 -18 10 -22z m-1194 -13 c3 -14 3 -33 0 -42 -6 -15 -8 -15 -16 -3 -13 20
-13 70 0 70 5 0 12 -11 16 -25z m2352 -2 c-2 -22 -9 -29 -30 -31 -22 -3 -28 1
-28 15 0 24 19 43 43 43 14 0 18 -6 15 -27z m949 -20 c-3 -10 -5 -4 -5 12 0
17 2 24 5 18 2 -7 2 -21 0 -30z m-2072 -1 c0 -18 -20 -15 -23 4 -3 10 1 15 10
12 7 -3 13 -10 13 -16z m22 -44 c-3 -8 -6 -5 -6 6 -1 11 2 17 5 13 3 -3 4 -12
1 -19z m-1212 -24 c5 -16 16 -35 22 -42 7 -7 13 -22 13 -33 0 -10 5 -19 11
-19 5 0 15 -13 20 -30 6 -16 15 -30 20 -30 5 0 9 -6 9 -13 0 -8 11 -27 25 -43
14 -16 32 -43 40 -61 8 -17 19 -33 23 -35 4 -2 34 -34 67 -73 76 -88 122 -134
210 -210 39 -33 72 -62 75 -65 3 -3 26 -19 52 -35 27 -17 48 -33 48 -37 0 -5
6 -8 14 -8 8 0 21 -7 30 -15 8 -8 25 -20 38 -25 13 -6 48 -24 78 -40 30 -16
61 -30 68 -30 7 0 15 -6 18 -14 3 -7 23 -16 45 -20 21 -3 39 -11 39 -16 0 -6
9 -10 19 -10 11 0 32 -5 48 -11 27 -11 27 -12 8 -21 -23 -10 -75 5 -75 22 0 5
-15 10 -34 10 -19 0 -41 6 -48 13 -7 8 -26 17 -42 21 -16 4 -35 14 -43 21 -8
8 -23 15 -34 15 -11 0 -22 7 -25 15 -4 8 -14 15 -24 15 -9 0 -27 9 -40 20 -13
11 -29 20 -37 20 -7 0 -13 5 -13 10 0 6 -8 14 -17 17 -25 9 -76 46 -86 61 -4
6 -15 12 -23 12 -8 0 -17 7 -20 15 -4 8 -11 15 -18 15 -6 0 -67 57 -135 128
-149 154 -151 156 -151 170 0 6 -6 15 -12 19 -14 8 -58 68 -58 78 0 3 -16 28
-35 55 -19 27 -35 56 -35 64 0 8 -7 16 -15 20 -8 3 -15 15 -15 27 0 11 -9 32
-20 46 -22 29 -27 67 -7 61 6 -3 16 -18 22 -34z m3231 -11 c-10 -10 -19 5 -10
18 6 11 8 11 12 0 2 -7 1 -15 -2 -18z m-1941 -73 c-6 -9 -9 -9 -16 1 -10 17 0
34 13 21 6 -6 7 -16 3 -22z m1902 8 c-3 -8 -6 -5 -6 6 -1 11 2 17 5 13 3 -3 4
-12 1 -19z m-1840 -100 c-3 -8 -6 -5 -6 6 -1 11 2 17 5 13 3 -3 4 -12 1 -19z
m38 -28 c3 -5 1 -10 -4 -10 -6 0 -11 5 -11 10 0 6 2 10 4 10 3 0 8 -4 11 -10z
m1702 -42 c-3 -8 -6 -5 -6 6 -1 11 2 17 5 13 3 -3 4 -12 1 -19z m-1444 -240
c3 -11 -1 -34 -9 -50 -30 -58 -98 -16 -74 47 13 34 75 37 83 3z m974 -234 c-3
-3 -12 -4 -19 -1 -8 3 -5 6 6 6 11 1 17 -2 13 -5z m-170 -100 c-3 -3 -12 -4
-19 -1 -8 3 -5 6 6 6 11 1 17 -2 13 -5z m-72 -34 c3 -5 -1 -10 -10 -10 -9 0
-13 5 -10 10 3 6 8 10 10 10 2 0 7 -4 10 -10z m-72 -37 c-7 -2 -21 -2 -30 0
-10 3 -4 5 12 5 17 0 24 -2 18 -5z m-88 -33 c-3 -5 -13 -10 -21 -10 -8 0 -14
5 -14 10 0 6 9 10 21 10 11 0 17 -4 14 -10z m-1068 -26 c13 -4 20 -10 17 -15
-10 -17 -104 -6 -104 12 0 10 54 12 87 3z m968 -4 c4 -6 -9 -10 -32 -9 -30 0
-34 2 -18 9 27 12 43 12 50 0z m-831 -26 c65 -9 57 -24 -13 -24 -69 0 -100 8
-79 21 16 10 31 11 92 3z m701 -14 c-28 -12 -83 -12 -90 0 -4 6 16 10 52 9 42
0 52 -3 38 -9z m-201 -29 c7 -11 -176 -20 -296 -13 -54 2 -98 9 -98 13 0 12
387 12 394 0z"/>
</g>
</svg>
